<svg width="22" height="22" viewBox="0 0 22 22" fill="none" xmlns="http://www.w3.org/2000/svg">
<path d="M7.08306 5.78693L3.39806 2.10193L2.1019 3.3981L18.6019 19.8981L19.8981 18.6019L18.0464 16.7503C19.4206 15.1503 20.1729 13.1091 20.1657 11C20.1657 7.24993 17.8997 4.1681 14.6666 2.75001V4.58335C16.8547 5.85385 18.3324 8.2931 18.3324 11C18.3277 12.6285 17.7897 14.2107 16.8006 15.5045L15.6218 14.3257C16.1736 13.3247 16.5 12.0908 16.5 11C16.5 9.3766 15.7896 7.42501 14.6666 6.41668V13.3705L12.8333 11.5372V1.95435L7.08306 5.78693ZM3.66665 15.5833H6.1389L12.8333 20.0457L12.8333 16.6109L2.84348 6.6211C2.54088 6.77257 2.28624 7.00503 2.10789 7.29261C1.92955 7.58019 1.8345 7.91162 1.83331 8.25001L1.83331 13.75C1.83331 14.7611 2.65556 15.5833 3.66665 15.5833Z" fill="white"/>
</svg>
