<svg width="23" height="22" viewBox="0 0 23 22" fill="none" xmlns="http://www.w3.org/2000/svg">
<path d="M15.3333 19.25C18.7134 17.8319 21.0824 14.7501 21.0824 11C21.0824 7.24992 18.7134 4.16808 15.3333 2.75V4.58333C17.6209 5.85383 19.1657 8.29308 19.1657 11C19.1657 13.7069 17.6209 16.1462 15.3333 17.4167L15.3333 19.25Z" fill="white"/>
<path d="M15.3334 6.41668V15.5833C16.5073 14.575 17.25 12.6234 17.25 11C17.25 9.3766 16.5073 7.42501 15.3334 6.41668ZM3.83335 15.5833H6.41798L13.4167 20.0457L13.4167 1.95435L6.41798 6.41668H3.83335C2.77631 6.41668 1.91669 7.23893 1.91669 8.25001L1.91669 13.75C1.91669 14.7611 2.77631 15.5833 3.83335 15.5833Z" fill="white"/>
</svg>
